<?xml version="1.0" encoding="iso-8859-1"?>
<!-- Generator: Adobe Illustrator 17.1.0, SVG Export Plug-In . SVG Version: 6.00 Build 0)  -->
<!DOCTYPE svg PUBLIC "-//W3C//DTD SVG 1.1//EN" "http://www.w3.org/Graphics/SVG/1.1/DTD/svg11.dtd">
<svg version="1.1" id="Capa_1" xmlns="http://www.w3.org/2000/svg" xmlns:xlink="http://www.w3.org/1999/xlink" x="0px" y="0px"
	 viewBox="0 0 286.789 286.789" style="enable-background:new 0 0 286.789 286.789;" xml:space="preserve">
<g>
	<path d="M58.971,58.97L42,41.999C14.916,69.083,0,105.092,0,143.395s14.916,74.311,42,101.395l16.971-16.971
		C36.42,205.268,24,175.286,24,143.395S36.42,81.52,58.971,58.97z"/>
	<path d="M86.219,86.22L69.248,69.249c-19.806,19.804-30.713,46.136-30.713,74.146s10.907,54.342,30.713,74.145l16.971-16.971
		c-15.272-15.271-23.684-35.576-23.684-57.175S70.946,101.491,86.219,86.22z"/>
	<path d="M96.528,96.526c-12.52,12.519-19.414,29.163-19.414,46.868s6.896,34.35,19.415,46.867l16.969-16.973
		c-7.985-7.984-12.384-18.602-12.384-29.895c0-11.294,4.398-21.912,12.385-29.898L96.528,96.526z"/>
	<path d="M244.789,41.999L227.818,58.97c22.551,22.551,34.971,52.533,34.971,84.425s-12.42,61.874-34.971,84.425l16.971,16.971
		c27.084-27.084,42-63.093,42-101.395S271.873,69.083,244.789,41.999z"/>
	<path d="M217.541,69.249L200.57,86.22c15.272,15.271,23.684,35.576,23.684,57.175s-8.411,41.903-23.684,57.175l16.971,16.971
		c19.806-19.804,30.713-46.136,30.713-74.145S237.347,89.053,217.541,69.249z"/>
	<path d="M190.261,96.526l-16.971,16.971c7.986,7.985,12.385,18.604,12.385,29.898c0,11.293-4.398,21.91-12.384,29.895
		l16.969,16.973c12.52-12.518,19.415-29.162,19.415-46.867S202.78,109.045,190.261,96.526z"/>
	<path d="M143.395,121.369c-5.637,0-11.272,2.15-15.574,6.451c-8.601,8.602-8.601,22.545,0,31.148
		c4.302,4.3,9.937,6.449,15.574,6.449s11.272-2.149,15.572-6.449c8.602-8.604,8.602-22.547,0-31.148
		C154.668,123.519,149.032,121.369,143.395,121.369z"/>
</g>
<g>
</g>
<g>
</g>
<g>
</g>
<g>
</g>
<g>
</g>
<g>
</g>
<g>
</g>
<g>
</g>
<g>
</g>
<g>
</g>
<g>
</g>
<g>
</g>
<g>
</g>
<g>
</g>
<g>
</g>
</svg>
